PathFileType	4	(X/Y/Z)	Run_300 02
DataRate	CameraRate	NumFrames	NumMarkers	Units	OrigDataRate	OrigDataStartFrame	OrigNumFrames
120	120	7	42	mm	120	177	128
Frame#	Time	LASI			RASI			LPSI			RPSI			RTH1			RTH2			RTH3			LTH1			LTH2			LTH3			RTB1			RTB2			LTB1			LTB2			LTB3			RCAL			RTOE			RMT5			LCAL			LTOE			LMT5			LACR			RACR			CLAV			C7			RUA1			RUA2			RUA3			RLEL			RMEL			LUA1			LUA2			LUA3			LLEL			LMEL			RFAsuperior			RFAradius			RFAulna			LFAsuperior			LFAradius			LFAulna			RTB3		
		X1	Y1	Z1	X2	Y2	Z2	X3	Y3	Z3	X4	Y4	Z4	X5	Y5	Z5	X6	Y6	Z6	X7	Y7	Z7	X8	Y8	Z8	X9	Y9	Z9	X10	Y10	Z10	X11	Y11	Z11	X12	Y12	Z12	X13	Y13	Z13	X14	Y14	Z14	X15	Y15	Z15	X16	Y16	Z16	X17	Y17	Z17	X18	Y18	Z18	X19	Y19	Z19	X20	Y20	Z20	X21	Y21	Z21	X22	Y22	Z22	X23	Y23	Z23	X24	Y24	Z24	X25	Y25	Z25	X26	Y26	Z26	X27	Y27	Z27	X28	Y28	Z28	X29	Y29	Z29	X30	Y30	Z30	X31	Y31	Z31	X32	Y32	Z32	X33	Y33	Z33	X34	Y34	Z34	X35	Y35	Z35	X36	Y36	Z36	X37	Y37	Z37	X38	Y38	Z38	X39	Y39	Z39	X40	Y40	Z40	X41	Y41	Z41	X42	Y42	Z42	

177	  1.475000	900.033679	1108.531958	-445.326946	900.685311	1104.152761	-186.440014	724.570622	1149.859441	-363.766220	725.099869	1148.893169	-280.056037	784.529345	940.087296	-141.049785	787.434633	821.227555	-160.171765	674.126787	748.858083	-192.843062	890.708567	902.577551	-494.524261	993.023735	808.661779	-480.096702	966.826652	680.421032	-457.122365	569.868275	458.478013	-277.640840	503.539352	426.169750	-213.921403	1083.873843	470.859171	-392.485300	1069.731453	379.856221	-444.715577	1105.536353	272.374272	-375.734831	278.886819	322.653684	-303.734888	379.728178	112.289456	-319.321616	309.967647	148.031638	-237.032232	1028.491273	108.923977	-362.769572	1253.372606	166.634541	-328.342657	1208.074914	106.333917	-413.239357	889.394849	1577.370757	-495.008839	940.978455	1588.047284	-168.827424	959.642152	1523.729528	-304.399549	842.102163	1612.090831	-314.398032	940.582788	1496.287953	-84.040699	951.838221	1406.610860	-82.071347	891.025104	1399.649446	-30.298631	900.611259	1266.272837	 24.703444	843.058829	1245.611817	-37.153599	826.824862	1523.266221	-565.404855	806.615508	1455.070901	-570.214305	717.545607	1484.587179	-535.419813	625.149991	1349.211504	-601.573551	600.349932	1350.595898	-520.589111	985.401575	1299.299076	-36.452975	1049.728314	1362.209717	-188.629160	1095.826250	1313.400120	-155.649242	712.676656	1309.539581	-593.225950	865.340156	1261.059754	-505.749520	840.480008	1198.766950	-532.500721	447.878572	341.137661	-282.466547	
178	  1.483333	899.999796	1106.650708	-445.877993	902.354478	1102.742479	-187.270726	724.750437	1147.723868	-363.342146	726.226990	1147.345519	-279.656546	787.858891	937.600841	-142.263330	791.549537	818.594880	-161.717494	679.489744	745.616912	-193.429095	889.029653	899.614982	-497.664598	990.083489	803.768768	-482.208540	963.764217	676.983755	-457.317807	570.627313	458.864755	-278.306116	502.451834	430.319381	-214.386906	1082.884858	468.777068	-393.428685	1068.717493	377.111244	-444.125381	1108.033403	271.086367	-375.293556	271.471375	337.473130	-304.429106	365.333582	123.756105	-317.971873	296.653002	162.574714	-236.139595	1033.694006	106.111921	-358.800123	1257.536264	169.251564	-329.010495	1212.644351	105.442779	-411.350306	889.582149	1575.775912	-495.845718	941.321866	1586.933304	-169.658136	959.529369	1522.489323	-305.084203	842.002770	1610.676362	-315.099608	940.730610	1495.081167	-84.803628	951.069648	1405.838521	-81.855971	889.373586	1399.541204	-30.776366	897.384190	1266.025108	 24.623734	839.095269	1246.207105	-36.973238	826.917922	1521.561973	-565.476882	807.125516	1453.461024	-571.045984	717.957815	1482.052765	-535.987687	626.635572	1346.067695	-603.066449	601.701540	1347.079691	-522.144715	982.487576	1297.250892	-37.204941	1046.321477	1359.179908	-190.124667	1092.137861	1310.093375	-157.184142	714.653469	1307.560246	-594.386675	867.672728	1260.688747	-506.782773	843.482216	1198.140577	-533.566036	445.561947	346.331234	-283.100774	
179	  1.491667	899.739165	1104.396018	-446.434981	903.823034	1100.477076	-187.922982	724.655989	1145.077209	-362.849030	727.116788	1145.005542	-279.118942	791.419200	934.164874	-143.674241	796.153890	815.166462	-163.514062	685.528212	741.092356	-194.068396	886.297336	895.638393	-500.708241	986.773225	798.540930	-485.137432	961.254745	673.617692	-457.270630	572.841549	458.558655	-279.163439	503.105747	434.014835	-214.894664	1081.393929	466.421721	-393.402065	1066.790442	374.021573	-442.910542	1107.667406	268.887582	-373.943462	265.900543	353.028105	-304.580982	352.057066	136.006473	-316.681717	284.752978	177.859304	-235.070424	1034.182030	103.280913	-354.292629	1257.960334	168.947019	-330.202106	1212.215638	102.706104	-409.920274	889.778909	1573.214908	-496.717357	941.460555	1585.041879	-170.364542	959.299836	1520.482045	-305.731418	841.817631	1608.580794	-315.934078	940.341082	1492.986168	-85.388305	949.622544	1404.327430	-81.474498	887.004196	1398.670064	-31.255166	893.299863	1264.960849	 24.441508	834.485128	1246.071753	-37.062817	827.303468	1518.528819	-565.889787	808.077990	1450.434098	-571.993743	718.673070	1478.033456	-537.067820	628.775805	1341.450676	-605.061997	603.647194	1342.058993	-524.306055	979.132297	1293.837433	-37.702657	1043.342869	1354.196412	-191.343105	1088.494553	1304.769697	-158.020922	717.368401	1304.196721	-595.954515	870.518577	1259.294869	-507.825932	847.233310	1196.398694	-534.713646	445.888039	350.412695	-283.722554	
180	  1.500000	899.330352	1101.729602	-447.245563	905.027694	1097.276777	-188.449583	724.348317	1141.792489	-362.269381	727.690414	1141.831900	-278.456185	795.150324	929.920235	-145.121602	801.124601	811.091026	-165.484796	692.019417	735.417868	-194.787216	882.715192	890.902622	-503.024682	983.479067	793.293141	-488.582343	959.147386	670.115014	-456.976258	576.521367	457.672993	-280.157202	505.560072	437.205924	-215.452788	1079.116880	463.372331	-392.551623	1063.877260	370.364153	-441.264676	1104.530118	265.521514	-371.851968	262.579771	369.192039	-304.197148	340.052052	148.896530	-315.467653	274.587512	193.806543	-233.779370	1030.486025	100.107916	-349.559242	1254.986589	165.810793	-331.237619	1207.344671	 98.168772	-408.659270	889.933186	1569.709985	-497.575028	941.393781	1582.410346	-170.919798	958.963549	1517.653609	-306.318839	841.570316	1605.804572	-316.913056	939.289067	1490.158758	-85.735892	947.505750	1402.033309	-81.011928	884.033766	1397.008506	-31.747932	888.384005	1263.101765	 24.147657	829.280381	1245.227278	-37.418335	827.956613	1514.295466	-566.683516	809.467320	1446.097538	-573.071937	719.685190	1472.602484	-538.667310	631.576304	1335.442783	-607.518758	606.101891	1335.615520	-526.989826	975.272988	1289.172917	-37.949044	1040.742309	1347.367519	-192.233363	1084.840629	1297.524867	-158.125395	720.771337	1299.500986	-597.948796	873.842116	1256.858204	-508.896161	851.685536	1193.540481	-535.952930	448.407770	353.613861	-284.257956	
181	  1.508333	898.900967	1098.601181	-448.484005	905.896540	1093.160017	-189.014654	723.932733	1137.727353	-361.602978	727.922554	1137.776188	-277.737519	798.998329	924.955320	-146.471290	806.425354	806.430873	-167.463459	698.889216	728.706241	-195.504221	878.956189	885.890185	-504.225549	980.448448	788.442659	-491.732908	957.131656	666.214051	-456.465398	581.615515	456.286687	-281.134781	509.761812	439.855941	-215.992739	1075.819447	459.205030	-391.304687	1059.713647	365.846070	-439.392960	1098.867941	260.862494	-369.541132	261.726790	385.730910	-303.371886	329.489250	162.269341	-314.335771	266.455995	210.295522	-232.283829	1023.163721	 96.918865	-344.748124	1248.812670	159.627370	-331.497508	1198.399201	 91.749368	-407.318615	890.023984	1565.349008	-498.418244	941.100628	1579.061302	-171.321506	958.533539	1513.991538	-306.822609	841.256383	1602.333890	-318.031197	937.567016	1486.686524	-85.863087	944.764792	1398.893222	-80.541907	880.541987	1394.537292	-32.269894	882.685054	1260.472864	 23.752479	823.513380	1243.686675	-38.025818	828.851004	1508.992545	-567.818832	811.264967	1440.602458	-574.288704	720.978339	1465.884915	-540.764460	635.033493	1328.136214	-610.390607	608.849717	1327.842382	-530.064475	970.830643	1283.382359	-37.971898	1038.449026	1338.847734	-192.687027	1081.106559	1288.463896	-157.503359	724.810683	1293.527324	-600.309738	877.634074	1253.370013	-510.022852	856.800395	1189.601454	-537.276753	452.638939	356.225264	-284.679251	
182	  1.516667	898.574052	1094.991038	-450.022484	906.406231	1088.315627	-189.775105	723.532509	1132.843216	-360.893483	727.893131	1132.815765	-277.045286	802.910173	919.338360	-147.639364	812.090028	801.153837	-169.200670	706.195037	721.071780	-196.087597	875.821496	880.906344	-504.167228	977.764382	784.273017	-493.558706	954.892892	661.699330	-455.833891	587.995668	454.409990	-281.876125	515.559151	441.941206	-216.380830	1071.464983	453.588175	-390.132433	1054.000995	360.158925	-437.401592	1091.052192	254.840878	-367.448651	263.408708	402.327472	-302.199207	320.573258	175.956662	-313.246724	260.578966	227.111330	-230.653173	1012.601044	 94.411866	-339.871992	1239.566883	149.848577	-330.625820	1185.570217	 83.445775	-405.837293	890.066338	1560.252424	-499.284264	940.543149	1574.976401	-171.614474	958.007978	1509.549763	-307.241989	840.843247	1598.157031	-319.276290	935.277000	1482.554273	-85.857331	941.448153	1394.856467	-80.113297	876.569835	1391.253718	-32.818602	876.267585	1257.106605	 23.271793	817.192841	1241.453740	-38.865404	829.966357	1502.706260	-569.195607	813.428806	1434.085650	-575.642482	722.533263	1458.028718	-543.326867	639.131054	1319.609112	-613.628803	611.682383	1318.832635	-533.405671	965.747330	1276.586399	-37.794996	1036.378035	1328.815094	-192.586620	1077.184685	1277.691507	-156.230401	729.443050	1286.324812	-602.887752	881.900459	1248.863670	-511.229261	862.551759	1184.648127	-538.672617	458.279757	358.391369	-284.936237	
183	  1.525000	898.377720	1090.903404	-451.459007	906.628567	1083.030436	-190.747100	723.208603	1127.259696	-360.230553	727.744380	1126.972078	-276.449121	806.840713	913.134261	-148.615965	818.138640	795.188384	-170.449281	714.035802	712.644939	-196.440948	873.871150	875.903850	-503.037553	975.534640	780.675746	-493.422202	952.341449	656.528443	-455.210340	595.514563	451.975239	-282.191550	522.759006	443.428453	-216.475891	1066.331607	446.453623	-389.290023	1046.664812	353.193110	-435.291465	1081.480406	247.518556	-365.468243	267.589173	418.605268	-300.738818	313.522993	189.749680	-312.106534	257.075896	243.927380	-228.937201	998.951288	 93.103666	-335.005980	1227.382094	136.347438	-328.611276	1169.104766	 73.850628	-404.328058	890.099927	1554.495090	-500.214421	939.691641	1570.106438	-171.886437	957.359109	1504.417504	-307.611228	840.266677	1593.276291	-320.629319	932.573706	1477.682759	-85.827221	937.591547	1389.907615	-79.758523	872.137269	1387.176044	-33.388394	869.206114	1253.043944	 22.707852	810.354634	1238.520835	-39.922029	831.296467	1495.472688	-570.692091	815.925339	1426.634732	-577.120871	724.337873	1449.162866	-546.313746	643.856178	1309.924874	-617.193261	614.606637	1308.659443	-536.971146	960.010892	1268.893478	-37.433791	1034.439017	1317.420491	-191.871967	1072.932441	1265.314140	-154.437466	734.640620	1277.939958	-605.514633	886.643018	1243.416810	-512.502891	868.908938	1178.770061	-540.129259	465.209503	360.066125	-284.936283	
